<svg xmlns="http://www.w3.org/2000/svg" viewBox="0 0 15 14.49"><g data-name="Calque 2"><path fill="#ff6c6c" d="M.87 6v6.27a1.62 1.62 0 00.2.69l4.44-4.19zm12.64 7.38L9 9.05a3.37 3.37 0 01-3 0l-4.51 4.33a1.28 1.28 0 00.73.21h10.56a1.28 1.28 0 00.73-.21zm-4-4.61L13.93 13a1.29 1.29 0 00.2-.69V6zM0 5.38A.51.51 0 01.17 5L5.61.7a3 3 0 013.81 0L14.83 5a.51.51 0 01.17.35v6.89a2.23 2.23 0 01-2.22 2.22H2.22A2.23 2.23 0 010 12.27zm13.93.07L8.87 1.39a2.17 2.17 0 00-2.74 0L1.07 5.45 6 8.39a2.78 2.78 0 003 0z" data-name="Calque 1"/></g></svg>