<svg xmlns="http://www.w3.org/2000/svg" viewBox="0 0 15 21.19"><g data-name="Calque 2"><g data-name="Calque 1"><path fill="#216BFE" d="M7.5 0A7.48 7.48 0 000 7.46a7.36 7.36 0 00.71 3.18 49.68 49.68 0 006.52 10.23l.27.32.27-.32a49.19 49.19 0 006.5-10.22A7.44 7.44 0 007.5 0zm6.12 10.35a48.16 48.16 0 01-6.12 9.73 48.31 48.31 0 01-6.14-9.74 6.63 6.63 0 01-.65-2.88 6.79 6.79 0 0113.58 0 6.68 6.68 0 01-.67 2.89z"/><path fill="#216BFE" d="M7.5 3.44a3.93 3.93 0 103.93 3.93A3.93 3.93 0 007.5 3.44zm0 7.14a3.21 3.21 0 113.22-3.21 3.21 3.21 0 01-3.22 3.21z"/></g></g></svg>