<svg version="1.1" id="Calque_1" xmlns="http://www.w3.org/2000/svg" x="0" y="0" viewBox="0 0 100 125" xml:space="preserve"><style>.st0{fill:#216bfe}</style><path class="st0" d="M90.1 28.5c-.2-1.2-1.1-2.2-2.2-2.6l-.2-.1v.1c-.5-.1-1-.2-1.5-.1L41.4 33c-.5.1-1 .3-1.4.6h-.1l-.1.2c-.9.7-1.4 1.9-1.2 3.1l4.9 29.8c.2 1.2 1.1 2.2 2.2 2.6l.1.1v-.1c.3.1.6.1.9.1h.5L92 62.1c.5-.1 1-.3 1.4-.6h.1l.1-.2c.2-.2.5-.4.7-.7.5-.7.7-1.6.6-2.5l-4.8-29.6zm-4.2-.5L68.1 49.9c-.4.4-1 .5-1.4.2l-24.2-15L85.9 28zM45.7 66l-4.8-29.3 18.9 11.8L45.7 66zm2 1.1l14-17.4 3.8 2.4c.5.3 1.2.5 1.8.5 1 0 1.9-.4 2.6-1.2l2.7-3.3 18.7 12-43.6 7zm26.2-20.8l14-17.2 4.8 29.3-18.8-12.1zM35.9 35.1c-.1-.6-.7-1-1.3-.9L5.9 38.8c-.6.1-1 .7-.9 1.3.1.5.6.9 1.1.9h.2L35 36.3c.6-.1 1-.6.9-1.2zM25.3 49.6l11.6-1.9c.6-.1 1-.7.9-1.3s-.7-1-1.3-.9l-11.6 1.9c-.6.1-1 .7-.9 1.3.1.5.6.9 1.1.9h.2zM18.7 61.3c.1.5.6.9 1.1.9h.2l18.7-3.1c.6-.1 1-.7.9-1.3s-.7-1-1.3-.9L19.6 60c-.6.1-1 .7-.9 1.3zM40.2 68.3l-23.1 3.8c-.6.1-1 .7-.9 1.3.1.5.6.9 1.1.9h.2l23.1-3.8c.6-.1 1-.7.9-1.3-.1-.5-.7-1-1.3-.9z"/></svg>