<svg xmlns="http://www.w3.org/2000/svg" viewBox="0 0 15 15"><g data-name="Calque 2"><g data-name="Calque 1"><path fill="#216BFE" d="M14.69 2.5h-2.5a.94.94 0 00-.94.82l-.72-.73a.28.28 0 00-.22-.09.93.93 0 01-.93-.94V.94a.94.94 0 00-1.88 0v1.93a.85.85 0 00-.31-.06H5.31a.94.94 0 00-.93.94 1 1 0 00.24.63.93.93 0 000 1.25.93.93 0 000 1.25.94.94 0 00.69 1.56h6.18a.93.93 0 00.7.31h2.5a.31.31 0 00.31-.31V2.81a.31.31 0 00-.31-.31zM5 6.25a.31.31 0 01.31-.31h1.88a.31.31 0 110 .62H5.31A.31.31 0 015 6.25zM5 5a.31.31 0 01.31-.31h1.88a.31.31 0 110 .62H5.31A.31.31 0 015 5zm.31-1.56h1.88a.31.31 0 110 .62H5.31a.31.31 0 110-.62zM5 7.5a.31.31 0 01.31-.31h1.88a.31.31 0 110 .62H5.31A.31.31 0 015 7.5zm3.07.31a.89.89 0 00-.19-.93.93.93 0 000-1.25 1.06 1.06 0 00.17-.26 2.33 2.33 0 001.95.88.31.31 0 00.31-.31.31.31 0 00-.31-.31 1.8 1.8 0 01-1.87-1.88V.94a.3.3 0 01.31-.31.31.31 0 01.31.31v.62a1.57 1.57 0 001.43 1.57l1.07 1.06v3.62zm6.31.32h-2.19a.31.31 0 01-.31-.32V3.44a.3.3 0 01.31-.31h2.19z"/><path fill="#216BFE" d="M14.69 9.38a.3.3 0 00-.31.31v.94a.94.94 0 01-.94.93h-2.81a.32.32 0 00-.32.32v2L8 11.66a.29.29 0 00-.22-.1H1.56a.93.93 0 01-.93-.93V1.56a.92.92 0 01.93-.93h5a.32.32 0 100-.63h-5A1.56 1.56 0 000 1.56v9.07a1.56 1.56 0 001.56 1.56h6.12l2.73 2.72a.31.31 0 00.44 0 .27.27 0 00.09-.21v-2.5h2.5A1.56 1.56 0 0015 10.63v-.94a.31.31 0 00-.31-.31z"/></g></g></svg>